<?xml version="1.0" standalone="no"?>
<!DOCTYPE svg PUBLIC "-//W3C//DTD SVG 20010904//EN"
 "http://www.w3.org/TR/2001/REC-SVG-20010904/DTD/svg10.dtd">
<svg version="1.0" xmlns="http://www.w3.org/2000/svg"
 width="113.000000pt" height="113.000000pt" viewBox="0 0 113.000000 113.000000"
 preserveAspectRatio="xMidYMid meet">

<g transform="translate(0.000000,113.000000) scale(0.100000,-0.100000)"
fill="#000000" stroke="none">
<path d="M422 1110 c-96 -25 -163 -62 -238 -133 -111 -104 -171 -226 -181
-373 -12 -168 43 -312 166 -434 88 -87 148 -122 257 -150 98 -25 180 -25 278
0 109 28 170 63 256 150 87 86 122 147 150 256 25 98 25 180 0 278 -28 109
-63 170 -150 256 -86 87 -147 122 -256 150 -96 25 -187 25 -282 0z m331 -264
c39 -16 82 -61 96 -99 17 -43 14 -330 -3 -370 -16 -39 -61 -82 -99 -96 -43
-17 -330 -14 -370 3 -39 16 -82 61 -96 99 -14 37 -14 327 0 364 14 37 57 82
94 99 43 19 334 19 378 0z"/>
<path d="M359 771 l-29 -29 0 -177 0 -177 29 -29 29 -29 177 0 177 0 29 29 29
29 0 177 0 177 -29 29 -29 29 -177 0 -177 0 -29 -29z m382 -21 c23 -13 24 -33
3 -54 -12 -12 -20 -13 -35 -6 -21 12 -25 40 -7 58 15 15 15 15 39 2z m-99 -56
c54 -28 84 -103 67 -168 -39 -145 -249 -146 -288 0 -35 130 98 231 221 168z"/>
<path d="M499 631 c-21 -22 -29 -39 -29 -66 0 -51 44 -95 95 -95 51 0 95 44
95 95 0 27 -8 44 -29 66 -22 21 -39 29 -66 29 -27 0 -44 -8 -66 -29z"/>
</g>
</svg>
