<svg width="128" height="126" viewBox="0 0 128 126" fill="none" xmlns="http://www.w3.org/2000/svg">
<path d="M21.3333 105C18.4 105 15.8666 103.994 13.7333 101.981C11.6888 99.8812 10.6666 97.3875 10.6666 94.5V31.5C10.6666 28.6125 11.6888 26.1625 13.7333 24.15C15.8666 22.05 18.4 21 21.3333 21H106.667C109.6 21 112.089 22.05 114.133 24.15C116.267 26.1625 117.333 28.6125 117.333 31.5V94.5C117.333 97.3875 116.267 99.8812 114.133 101.981C112.089 103.994 109.6 105 106.667 105H21.3333ZM64 68.25L106.667 42V31.5L64 57.75L21.3333 31.5V42L64 68.25Z" fill="#1D1B20"/>
</svg>
