<?xml version="1.0" standalone="no"?>
<!DOCTYPE svg PUBLIC "-//W3C//DTD SVG 20010904//EN"
 "http://www.w3.org/TR/2001/REC-SVG-20010904/DTD/svg10.dtd">
<svg version="1.0" xmlns="http://www.w3.org/2000/svg"
 width="113.000000pt" height="113.000000pt" viewBox="0 0 113.000000 113.000000"
 preserveAspectRatio="xMidYMid meet">

<g transform="translate(0.000000,113.000000) scale(0.100000,-0.100000)"
fill="#000000" stroke="none">
<path d="M422 1110 c-96 -25 -163 -62 -238 -133 -111 -104 -171 -226 -181
-373 -12 -168 43 -312 166 -434 88 -87 148 -122 257 -150 98 -25 180 -25 278
0 109 28 170 63 256 150 87 86 122 147 150 256 25 98 25 180 0 278 -28 109
-63 170 -150 256 -86 87 -147 122 -256 150 -96 25 -187 25 -282 0z m320 -148
c85 -38 164 -127 192 -218 5 -17 0 -22 -29 -32 -34 -10 -37 -9 -46 16 -5 15
-11 32 -13 37 -15 40 -71 96 -122 121 -51 25 -70 28 -149 29 -80 0 -96 -3
-150 -30 -110 -55 -158 -153 -158 -320 0 -167 48 -265 158 -320 53 -26 71 -30
145 -30 123 0 200 37 240 115 33 64 22 128 -27 173 -19 17 -20 16 -31 -20 -29
-96 -90 -143 -184 -143 -101 0 -175 69 -164 154 10 86 79 131 198 131 82 0 89
5 68 46 -28 51 -128 63 -174 20 l-22 -21 -32 23 -32 24 23 21 c39 37 80 52
140 52 101 0 172 -57 184 -148 4 -31 12 -42 45 -61 132 -76 132 -278 -1 -376
-72 -52 -134 -68 -249 -63 -78 3 -108 9 -153 30 -146 67 -218 218 -207 431 11
196 89 315 241 369 72 26 241 20 309 -10z"/>
<path d="M506 529 c-55 -44 -22 -111 57 -113 69 -2 101 27 121 107 l6 27 -78
0 c-65 0 -84 -4 -106 -21z"/>
</g>
</svg>
